<mxfile host="app.diagrams.net" modified="2023-08-10T20:20:37.739Z" agent="Mozilla/5.0 (Windows NT 10.0; Win64; x64) AppleWebKit/537.36 (KHTML, like Gecko) Chrome/115.0.0.0 Safari/537.36" etag="8Y1-aGUemv_kKjYCmjTt" version="21.6.8" type="github">
  <diagram id="R2lEEEUBdFMjLlhIrx00" name="Page-1">
    <mxGraphModel dx="3141" dy="2489" grid="1" gridSize="10" guides="1" tooltips="1" connect="1" arrows="1" fold="1" page="1" pageScale="1" pageWidth="850" pageHeight="1100" background="#ffffff" math="0" shadow="0" extFonts="Permanent Marker^https://fonts.googleapis.com/css?family=Permanent+Marker">
      <root>
        <mxCell id="0" />
        <mxCell id="1" parent="0" />
        <mxCell id="8uIGnQ0dggvI_LjnIeeM-11" value="" style="rounded=1;whiteSpace=wrap;html=1;fillColor=#9e6ad2;strokeColor=#56517e;" vertex="1" parent="1">
          <mxGeometry x="960" y="490" width="120" height="60" as="geometry" />
        </mxCell>
        <mxCell id="8uIGnQ0dggvI_LjnIeeM-13" value="" style="rounded=1;whiteSpace=wrap;html=1;fillColor=#9e6ad2;" vertex="1" parent="1">
          <mxGeometry x="1030" y="540" width="120" height="60" as="geometry" />
        </mxCell>
        <mxCell id="8uIGnQ0dggvI_LjnIeeM-15" value="" style="rounded=1;whiteSpace=wrap;html=1;fillColor=#9e6ad2;" vertex="1" parent="1">
          <mxGeometry x="920" y="460" width="120" height="60" as="geometry" />
        </mxCell>
        <mxCell id="8uIGnQ0dggvI_LjnIeeM-18" value="" style="rounded=1;whiteSpace=wrap;html=1;fillColor=#9e6ad2;" vertex="1" parent="1">
          <mxGeometry x="890" y="670" width="120" height="60" as="geometry" />
        </mxCell>
        <mxCell id="8uIGnQ0dggvI_LjnIeeM-19" value="" style="rounded=1;whiteSpace=wrap;html=1;fillColor=#9e6ad2;" vertex="1" parent="1">
          <mxGeometry x="830" y="800" width="120" height="60" as="geometry" />
        </mxCell>
        <mxCell id="8uIGnQ0dggvI_LjnIeeM-20" value="" style="rounded=1;whiteSpace=wrap;html=1;fillColor=#9e6ad2;" vertex="1" parent="1">
          <mxGeometry x="580" y="710" width="120" height="60" as="geometry" />
        </mxCell>
        <mxCell id="8uIGnQ0dggvI_LjnIeeM-121" value="" style="group" vertex="1" connectable="0" parent="1">
          <mxGeometry x="-530" y="-270" width="480" height="290" as="geometry" />
        </mxCell>
        <mxCell id="8uIGnQ0dggvI_LjnIeeM-119" value="&lt;b style=&quot;border-color: var(--border-color);&quot;&gt;&lt;font style=&quot;border-color: var(--border-color);&quot; face=&quot;Times New Roman&quot;&gt;Registration_date&lt;/font&gt;&lt;/b&gt;" style="ellipse;whiteSpace=wrap;html=1;fillColor=#b1ddf0;strokeColor=#10739e;" vertex="1" parent="8uIGnQ0dggvI_LjnIeeM-121">
          <mxGeometry x="175" y="250" width="130" height="40" as="geometry" />
        </mxCell>
        <mxCell id="8uIGnQ0dggvI_LjnIeeM-120" value="" style="group" vertex="1" connectable="0" parent="8uIGnQ0dggvI_LjnIeeM-121">
          <mxGeometry width="480" height="250" as="geometry" />
        </mxCell>
        <mxCell id="8uIGnQ0dggvI_LjnIeeM-104" value="&lt;b&gt;&lt;font face=&quot;Times New Roman&quot; style=&quot;font-size: 24px;&quot;&gt;User&lt;/font&gt;&lt;/b&gt;" style="rounded=1;whiteSpace=wrap;html=1;fillColor=#9e6ad2;arcSize=16;" vertex="1" parent="8uIGnQ0dggvI_LjnIeeM-120">
          <mxGeometry x="300" y="120" width="120" height="60" as="geometry" />
        </mxCell>
        <mxCell id="8uIGnQ0dggvI_LjnIeeM-105" value="&lt;b style=&quot;border-color: var(--border-color);&quot;&gt;&lt;font face=&quot;Times New Roman&quot;&gt;First_Name&lt;/font&gt;&lt;/b&gt;" style="ellipse;whiteSpace=wrap;html=1;fillColor=#b1ddf0;strokeColor=#10739e;" vertex="1" parent="8uIGnQ0dggvI_LjnIeeM-120">
          <mxGeometry x="110" y="10" width="130" height="40" as="geometry" />
        </mxCell>
        <mxCell id="8uIGnQ0dggvI_LjnIeeM-103" style="edgeStyle=orthogonalEdgeStyle;curved=1;rounded=0;orthogonalLoop=1;jettySize=auto;html=1;exitX=0.25;exitY=0;exitDx=0;exitDy=0;entryX=1;entryY=1;entryDx=0;entryDy=0;endArrow=none;endFill=0;" edge="1" parent="8uIGnQ0dggvI_LjnIeeM-120" source="8uIGnQ0dggvI_LjnIeeM-104" target="8uIGnQ0dggvI_LjnIeeM-105">
          <mxGeometry relative="1" as="geometry" />
        </mxCell>
        <mxCell id="8uIGnQ0dggvI_LjnIeeM-106" style="edgeStyle=orthogonalEdgeStyle;curved=1;rounded=0;orthogonalLoop=1;jettySize=auto;html=1;exitX=0.5;exitY=1;exitDx=0;exitDy=0;entryX=0.5;entryY=0;entryDx=0;entryDy=0;endArrow=none;endFill=0;" edge="1" parent="8uIGnQ0dggvI_LjnIeeM-120" source="8uIGnQ0dggvI_LjnIeeM-107" target="8uIGnQ0dggvI_LjnIeeM-104">
          <mxGeometry relative="1" as="geometry" />
        </mxCell>
        <mxCell id="8uIGnQ0dggvI_LjnIeeM-107" value="&lt;font face=&quot;Times New Roman&quot;&gt;&lt;b&gt;&lt;u&gt;User_Id&lt;/u&gt;&lt;/b&gt;&lt;/font&gt;" style="ellipse;whiteSpace=wrap;html=1;fillColor=#b1ddf0;strokeColor=#10739e;" vertex="1" parent="8uIGnQ0dggvI_LjnIeeM-120">
          <mxGeometry x="250" width="130" height="40" as="geometry" />
        </mxCell>
        <mxCell id="8uIGnQ0dggvI_LjnIeeM-108" style="edgeStyle=orthogonalEdgeStyle;curved=1;rounded=0;orthogonalLoop=1;jettySize=auto;html=1;exitX=1;exitY=1;exitDx=0;exitDy=0;entryX=0;entryY=0.25;entryDx=0;entryDy=0;endArrow=none;endFill=0;" edge="1" parent="8uIGnQ0dggvI_LjnIeeM-120" source="8uIGnQ0dggvI_LjnIeeM-109" target="8uIGnQ0dggvI_LjnIeeM-104">
          <mxGeometry relative="1" as="geometry" />
        </mxCell>
        <mxCell id="8uIGnQ0dggvI_LjnIeeM-109" value="&lt;b style=&quot;border-color: var(--border-color);&quot;&gt;&lt;font face=&quot;Times New Roman&quot;&gt;Last_Name&lt;/font&gt;&lt;/b&gt;" style="ellipse;whiteSpace=wrap;html=1;fillColor=#b1ddf0;strokeColor=#10739e;" vertex="1" parent="8uIGnQ0dggvI_LjnIeeM-120">
          <mxGeometry x="50" y="60" width="130" height="40" as="geometry" />
        </mxCell>
        <mxCell id="8uIGnQ0dggvI_LjnIeeM-110" style="edgeStyle=orthogonalEdgeStyle;curved=1;rounded=0;orthogonalLoop=1;jettySize=auto;html=1;exitX=1;exitY=0.5;exitDx=0;exitDy=0;entryX=0;entryY=0.75;entryDx=0;entryDy=0;endArrow=none;endFill=0;" edge="1" parent="8uIGnQ0dggvI_LjnIeeM-120" source="8uIGnQ0dggvI_LjnIeeM-111" target="8uIGnQ0dggvI_LjnIeeM-104">
          <mxGeometry relative="1" as="geometry" />
        </mxCell>
        <mxCell id="8uIGnQ0dggvI_LjnIeeM-111" value="&lt;font face=&quot;Times New Roman&quot;&gt;&lt;b&gt;Nid_Number&lt;/b&gt;&lt;/font&gt;" style="ellipse;whiteSpace=wrap;html=1;fillColor=#b1ddf0;strokeColor=#10739e;" vertex="1" parent="8uIGnQ0dggvI_LjnIeeM-120">
          <mxGeometry x="30" y="110" width="130" height="40" as="geometry" />
        </mxCell>
        <mxCell id="8uIGnQ0dggvI_LjnIeeM-112" style="edgeStyle=orthogonalEdgeStyle;rounded=1;orthogonalLoop=1;jettySize=auto;html=1;exitX=0.5;exitY=1;exitDx=0;exitDy=0;entryX=0.804;entryY=-0.021;entryDx=0;entryDy=0;entryPerimeter=0;strokeColor=default;endArrow=none;endFill=0;" edge="1" parent="8uIGnQ0dggvI_LjnIeeM-120" source="8uIGnQ0dggvI_LjnIeeM-113" target="8uIGnQ0dggvI_LjnIeeM-104">
          <mxGeometry relative="1" as="geometry" />
        </mxCell>
        <mxCell id="8uIGnQ0dggvI_LjnIeeM-113" value="&lt;b&gt;&lt;font face=&quot;Times New Roman&quot;&gt;Email&lt;/font&gt;&lt;/b&gt;" style="ellipse;whiteSpace=wrap;html=1;fillColor=#b1ddf0;strokeColor=#10739e;" vertex="1" parent="8uIGnQ0dggvI_LjnIeeM-120">
          <mxGeometry x="350" y="40" width="130" height="40" as="geometry" />
        </mxCell>
        <mxCell id="8uIGnQ0dggvI_LjnIeeM-114" style="edgeStyle=orthogonalEdgeStyle;curved=1;rounded=0;orthogonalLoop=1;jettySize=auto;html=1;exitX=1;exitY=0.5;exitDx=0;exitDy=0;entryX=0.065;entryY=1.008;entryDx=0;entryDy=0;entryPerimeter=0;endArrow=none;endFill=0;" edge="1" parent="8uIGnQ0dggvI_LjnIeeM-120" source="8uIGnQ0dggvI_LjnIeeM-115" target="8uIGnQ0dggvI_LjnIeeM-104">
          <mxGeometry relative="1" as="geometry" />
        </mxCell>
        <mxCell id="8uIGnQ0dggvI_LjnIeeM-115" value="&lt;b style=&quot;border-color: var(--border-color);&quot;&gt;&lt;font style=&quot;border-color: var(--border-color);&quot; face=&quot;Times New Roman&quot;&gt;Password&lt;/font&gt;&lt;/b&gt;" style="ellipse;whiteSpace=wrap;html=1;fillColor=#b1ddf0;strokeColor=#10739e;" vertex="1" parent="8uIGnQ0dggvI_LjnIeeM-120">
          <mxGeometry y="160" width="130" height="40" as="geometry" />
        </mxCell>
        <mxCell id="8uIGnQ0dggvI_LjnIeeM-116" style="edgeStyle=orthogonalEdgeStyle;curved=1;rounded=0;orthogonalLoop=1;jettySize=auto;html=1;exitX=1;exitY=0.5;exitDx=0;exitDy=0;endArrow=none;endFill=0;entryX=0.182;entryY=0.993;entryDx=0;entryDy=0;entryPerimeter=0;" edge="1" parent="8uIGnQ0dggvI_LjnIeeM-120" source="8uIGnQ0dggvI_LjnIeeM-117" target="8uIGnQ0dggvI_LjnIeeM-104">
          <mxGeometry relative="1" as="geometry">
            <mxPoint x="320" y="190" as="targetPoint" />
          </mxGeometry>
        </mxCell>
        <mxCell id="8uIGnQ0dggvI_LjnIeeM-117" value="&lt;b style=&quot;border-color: var(--border-color);&quot;&gt;&lt;font style=&quot;border-color: var(--border-color);&quot; face=&quot;Times New Roman&quot;&gt;Phone_Number&lt;/font&gt;&lt;/b&gt;" style="ellipse;whiteSpace=wrap;html=1;fillColor=#b1ddf0;strokeColor=#10739e;" vertex="1" parent="8uIGnQ0dggvI_LjnIeeM-120">
          <mxGeometry x="40" y="210" width="130" height="40" as="geometry" />
        </mxCell>
        <mxCell id="8uIGnQ0dggvI_LjnIeeM-118" style="edgeStyle=orthogonalEdgeStyle;curved=1;rounded=0;orthogonalLoop=1;jettySize=auto;html=1;exitX=1;exitY=0;exitDx=0;exitDy=0;endArrow=none;endFill=0;" edge="1" parent="8uIGnQ0dggvI_LjnIeeM-120" source="8uIGnQ0dggvI_LjnIeeM-119">
          <mxGeometry relative="1" as="geometry">
            <mxPoint x="342" y="180" as="targetPoint" />
          </mxGeometry>
        </mxCell>
        <mxCell id="8uIGnQ0dggvI_LjnIeeM-122" value="" style="group" vertex="1" connectable="0" parent="1">
          <mxGeometry x="120" y="-320" width="600" height="190" as="geometry" />
        </mxCell>
        <mxCell id="8uIGnQ0dggvI_LjnIeeM-62" value="&lt;b&gt;&lt;font face=&quot;Times New Roman&quot; style=&quot;font-size: 24px;&quot;&gt;Admin&lt;/font&gt;&lt;/b&gt;" style="rounded=1;whiteSpace=wrap;html=1;fillColor=#9e6ad2;arcSize=16;" vertex="1" parent="8uIGnQ0dggvI_LjnIeeM-122">
          <mxGeometry x="250" y="90" width="120" height="60" as="geometry" />
        </mxCell>
        <mxCell id="8uIGnQ0dggvI_LjnIeeM-72" style="edgeStyle=orthogonalEdgeStyle;curved=1;rounded=0;orthogonalLoop=1;jettySize=auto;html=1;exitX=0.5;exitY=1;exitDx=0;exitDy=0;entryX=0.392;entryY=-0.05;entryDx=0;entryDy=0;entryPerimeter=0;endArrow=none;endFill=0;" edge="1" parent="8uIGnQ0dggvI_LjnIeeM-122" source="8uIGnQ0dggvI_LjnIeeM-63" target="8uIGnQ0dggvI_LjnIeeM-62">
          <mxGeometry relative="1" as="geometry" />
        </mxCell>
        <mxCell id="8uIGnQ0dggvI_LjnIeeM-63" value="&lt;b&gt;&lt;font face=&quot;Times New Roman&quot;&gt;Email&lt;/font&gt;&lt;/b&gt;" style="ellipse;whiteSpace=wrap;html=1;fillColor=#b1ddf0;strokeColor=#10739e;" vertex="1" parent="8uIGnQ0dggvI_LjnIeeM-122">
          <mxGeometry x="220" width="130" height="40" as="geometry" />
        </mxCell>
        <mxCell id="8uIGnQ0dggvI_LjnIeeM-71" style="edgeStyle=orthogonalEdgeStyle;curved=1;rounded=0;orthogonalLoop=1;jettySize=auto;html=1;exitX=1;exitY=1;exitDx=0;exitDy=0;entryX=0;entryY=0.5;entryDx=0;entryDy=0;endArrow=none;endFill=0;" edge="1" parent="8uIGnQ0dggvI_LjnIeeM-122" source="8uIGnQ0dggvI_LjnIeeM-64" target="8uIGnQ0dggvI_LjnIeeM-62">
          <mxGeometry relative="1" as="geometry" />
        </mxCell>
        <mxCell id="8uIGnQ0dggvI_LjnIeeM-64" value="&lt;font face=&quot;Times New Roman&quot;&gt;&lt;b&gt;&lt;u&gt;User_Id&lt;/u&gt;&lt;/b&gt;&lt;/font&gt;" style="ellipse;whiteSpace=wrap;html=1;fillColor=#b1ddf0;strokeColor=#10739e;" vertex="1" parent="8uIGnQ0dggvI_LjnIeeM-122">
          <mxGeometry x="50" y="30" width="130" height="40" as="geometry" />
        </mxCell>
        <mxCell id="8uIGnQ0dggvI_LjnIeeM-73" style="edgeStyle=orthogonalEdgeStyle;curved=1;rounded=0;orthogonalLoop=1;jettySize=auto;html=1;exitX=0;exitY=1;exitDx=0;exitDy=0;entryX=0.86;entryY=-0.029;entryDx=0;entryDy=0;entryPerimeter=0;endArrow=none;endFill=0;" edge="1" parent="8uIGnQ0dggvI_LjnIeeM-122" source="8uIGnQ0dggvI_LjnIeeM-66" target="8uIGnQ0dggvI_LjnIeeM-62">
          <mxGeometry relative="1" as="geometry" />
        </mxCell>
        <mxCell id="8uIGnQ0dggvI_LjnIeeM-66" value="&lt;b style=&quot;border-color: var(--border-color);&quot;&gt;&lt;font style=&quot;border-color: var(--border-color);&quot; face=&quot;Times New Roman&quot;&gt;Password&lt;/font&gt;&lt;/b&gt;" style="ellipse;whiteSpace=wrap;html=1;fillColor=#b1ddf0;strokeColor=#10739e;" vertex="1" parent="8uIGnQ0dggvI_LjnIeeM-122">
          <mxGeometry x="400" y="10" width="130" height="40" as="geometry" />
        </mxCell>
        <mxCell id="8uIGnQ0dggvI_LjnIeeM-74" style="edgeStyle=orthogonalEdgeStyle;curved=1;rounded=0;orthogonalLoop=1;jettySize=auto;html=1;exitX=0;exitY=0.5;exitDx=0;exitDy=0;entryX=1;entryY=0.25;entryDx=0;entryDy=0;endArrow=none;endFill=0;" edge="1" parent="8uIGnQ0dggvI_LjnIeeM-122" source="8uIGnQ0dggvI_LjnIeeM-67" target="8uIGnQ0dggvI_LjnIeeM-62">
          <mxGeometry relative="1" as="geometry" />
        </mxCell>
        <mxCell id="8uIGnQ0dggvI_LjnIeeM-67" value="&lt;b style=&quot;border-color: var(--border-color);&quot;&gt;&lt;font face=&quot;Times New Roman&quot;&gt;First_Name&lt;/font&gt;&lt;/b&gt;" style="ellipse;whiteSpace=wrap;html=1;fillColor=#b1ddf0;strokeColor=#10739e;" vertex="1" parent="8uIGnQ0dggvI_LjnIeeM-122">
          <mxGeometry x="470" y="80" width="130" height="40" as="geometry" />
        </mxCell>
        <mxCell id="8uIGnQ0dggvI_LjnIeeM-76" style="edgeStyle=orthogonalEdgeStyle;curved=1;rounded=0;orthogonalLoop=1;jettySize=auto;html=1;exitX=0;exitY=0.5;exitDx=0;exitDy=0;entryX=1;entryY=0.75;entryDx=0;entryDy=0;endArrow=none;endFill=0;" edge="1" parent="8uIGnQ0dggvI_LjnIeeM-122" source="8uIGnQ0dggvI_LjnIeeM-68" target="8uIGnQ0dggvI_LjnIeeM-62">
          <mxGeometry relative="1" as="geometry" />
        </mxCell>
        <mxCell id="8uIGnQ0dggvI_LjnIeeM-68" value="&lt;b style=&quot;border-color: var(--border-color);&quot;&gt;&lt;font face=&quot;Times New Roman&quot;&gt;Last_Name&lt;/font&gt;&lt;/b&gt;" style="ellipse;whiteSpace=wrap;html=1;fillColor=#b1ddf0;strokeColor=#10739e;" vertex="1" parent="8uIGnQ0dggvI_LjnIeeM-122">
          <mxGeometry x="450" y="150" width="130" height="40" as="geometry" />
        </mxCell>
        <mxCell id="8uIGnQ0dggvI_LjnIeeM-70" style="edgeStyle=orthogonalEdgeStyle;curved=1;rounded=0;orthogonalLoop=1;jettySize=auto;html=1;exitX=1;exitY=0.5;exitDx=0;exitDy=0;entryX=0;entryY=0.75;entryDx=0;entryDy=0;endArrow=none;endFill=0;" edge="1" parent="8uIGnQ0dggvI_LjnIeeM-122" source="8uIGnQ0dggvI_LjnIeeM-69" target="8uIGnQ0dggvI_LjnIeeM-62">
          <mxGeometry relative="1" as="geometry" />
        </mxCell>
        <mxCell id="8uIGnQ0dggvI_LjnIeeM-69" value="&lt;b style=&quot;border-color: var(--border-color);&quot;&gt;&lt;font style=&quot;border-color: var(--border-color); font-size: 14px;&quot; face=&quot;Times New Roman&quot;&gt;Phone_Number&lt;/font&gt;&lt;/b&gt;" style="ellipse;whiteSpace=wrap;html=1;fillColor=#b1ddf0;strokeColor=#10739e;" vertex="1" parent="8uIGnQ0dggvI_LjnIeeM-122">
          <mxGeometry y="110" width="150" height="40" as="geometry" />
        </mxCell>
        <mxCell id="8uIGnQ0dggvI_LjnIeeM-123" value="" style="group" vertex="1" connectable="0" parent="1">
          <mxGeometry x="-380" y="430" width="550" height="370" as="geometry" />
        </mxCell>
        <mxCell id="8uIGnQ0dggvI_LjnIeeM-77" value="&lt;b&gt;&lt;font face=&quot;Times New Roman&quot; style=&quot;font-size: 24px;&quot;&gt;Ride&lt;/font&gt;&lt;/b&gt;" style="rounded=1;whiteSpace=wrap;html=1;fillColor=#9e6ad2;arcSize=16;" vertex="1" parent="8uIGnQ0dggvI_LjnIeeM-123">
          <mxGeometry x="300" y="130" width="120" height="60" as="geometry" />
        </mxCell>
        <mxCell id="8uIGnQ0dggvI_LjnIeeM-92" style="edgeStyle=orthogonalEdgeStyle;curved=1;rounded=0;orthogonalLoop=1;jettySize=auto;html=1;exitX=0.5;exitY=1;exitDx=0;exitDy=0;entryX=0.25;entryY=0;entryDx=0;entryDy=0;endArrow=none;endFill=0;" edge="1" parent="8uIGnQ0dggvI_LjnIeeM-123" source="8uIGnQ0dggvI_LjnIeeM-79" target="8uIGnQ0dggvI_LjnIeeM-77">
          <mxGeometry relative="1" as="geometry" />
        </mxCell>
        <mxCell id="8uIGnQ0dggvI_LjnIeeM-79" value="&lt;font face=&quot;Times New Roman&quot;&gt;&lt;b&gt;User_Id&lt;/b&gt;&lt;/font&gt;" style="ellipse;whiteSpace=wrap;html=1;fillColor=#b1ddf0;strokeColor=#10739e;" vertex="1" parent="8uIGnQ0dggvI_LjnIeeM-123">
          <mxGeometry x="220" y="50" width="130" height="40" as="geometry" />
        </mxCell>
        <mxCell id="8uIGnQ0dggvI_LjnIeeM-94" style="edgeStyle=orthogonalEdgeStyle;curved=1;rounded=0;orthogonalLoop=1;jettySize=auto;html=1;exitX=0;exitY=1;exitDx=0;exitDy=0;entryX=0.75;entryY=0;entryDx=0;entryDy=0;endArrow=none;endFill=0;" edge="1" parent="8uIGnQ0dggvI_LjnIeeM-123" source="8uIGnQ0dggvI_LjnIeeM-80" target="8uIGnQ0dggvI_LjnIeeM-77">
          <mxGeometry relative="1" as="geometry" />
        </mxCell>
        <mxCell id="8uIGnQ0dggvI_LjnIeeM-80" value="&lt;font face=&quot;Times New Roman&quot;&gt;&lt;b&gt;Driver_Id&lt;/b&gt;&lt;/font&gt;" style="ellipse;whiteSpace=wrap;html=1;fillColor=#b1ddf0;strokeColor=#10739e;" vertex="1" parent="8uIGnQ0dggvI_LjnIeeM-123">
          <mxGeometry x="380" y="50" width="130" height="40" as="geometry" />
        </mxCell>
        <mxCell id="8uIGnQ0dggvI_LjnIeeM-93" style="edgeStyle=orthogonalEdgeStyle;curved=1;rounded=0;orthogonalLoop=1;jettySize=auto;html=1;exitX=0.5;exitY=1;exitDx=0;exitDy=0;entryX=0.5;entryY=0;entryDx=0;entryDy=0;endArrow=none;endFill=0;" edge="1" parent="8uIGnQ0dggvI_LjnIeeM-123" source="8uIGnQ0dggvI_LjnIeeM-81" target="8uIGnQ0dggvI_LjnIeeM-77">
          <mxGeometry relative="1" as="geometry" />
        </mxCell>
        <mxCell id="8uIGnQ0dggvI_LjnIeeM-81" value="&lt;font face=&quot;Times New Roman&quot;&gt;&lt;b&gt;&lt;u&gt;Ride_Id&lt;/u&gt;&lt;/b&gt;&lt;/font&gt;" style="ellipse;whiteSpace=wrap;html=1;fillColor=#b1ddf0;strokeColor=#10739e;" vertex="1" parent="8uIGnQ0dggvI_LjnIeeM-123">
          <mxGeometry x="310" width="130" height="40" as="geometry" />
        </mxCell>
        <mxCell id="8uIGnQ0dggvI_LjnIeeM-89" style="edgeStyle=orthogonalEdgeStyle;curved=1;rounded=0;orthogonalLoop=1;jettySize=auto;html=1;exitX=1;exitY=0;exitDx=0;exitDy=0;entryX=0.5;entryY=1;entryDx=0;entryDy=0;endArrow=none;endFill=0;" edge="1" parent="8uIGnQ0dggvI_LjnIeeM-123" source="8uIGnQ0dggvI_LjnIeeM-82" target="8uIGnQ0dggvI_LjnIeeM-77">
          <mxGeometry relative="1" as="geometry" />
        </mxCell>
        <mxCell id="8uIGnQ0dggvI_LjnIeeM-82" value="&lt;font face=&quot;Times New Roman&quot;&gt;&lt;b&gt;Vehicle_Id&lt;/b&gt;&lt;/font&gt;" style="ellipse;whiteSpace=wrap;html=1;fillColor=#b1ddf0;strokeColor=#10739e;" vertex="1" parent="8uIGnQ0dggvI_LjnIeeM-123">
          <mxGeometry x="240" y="330" width="130" height="40" as="geometry" />
        </mxCell>
        <mxCell id="8uIGnQ0dggvI_LjnIeeM-91" style="edgeStyle=orthogonalEdgeStyle;curved=1;rounded=0;orthogonalLoop=1;jettySize=auto;html=1;exitX=1;exitY=0.5;exitDx=0;exitDy=0;entryX=0.018;entryY=0.881;entryDx=0;entryDy=0;endArrow=none;endFill=0;entryPerimeter=0;" edge="1" parent="8uIGnQ0dggvI_LjnIeeM-123" source="8uIGnQ0dggvI_LjnIeeM-83" target="8uIGnQ0dggvI_LjnIeeM-77">
          <mxGeometry relative="1" as="geometry" />
        </mxCell>
        <mxCell id="8uIGnQ0dggvI_LjnIeeM-83" value="&lt;font face=&quot;Times New Roman&quot;&gt;&lt;b&gt;Pick_Up_Location&lt;/b&gt;&lt;/font&gt;" style="ellipse;whiteSpace=wrap;html=1;fillColor=#b1ddf0;strokeColor=#10739e;" vertex="1" parent="8uIGnQ0dggvI_LjnIeeM-123">
          <mxGeometry x="110" y="180" width="130" height="40" as="geometry" />
        </mxCell>
        <mxCell id="8uIGnQ0dggvI_LjnIeeM-90" style="edgeStyle=orthogonalEdgeStyle;curved=1;rounded=0;orthogonalLoop=1;jettySize=auto;html=1;exitX=1;exitY=0.5;exitDx=0;exitDy=0;entryX=0.25;entryY=1;entryDx=0;entryDy=0;endArrow=none;endFill=0;" edge="1" parent="8uIGnQ0dggvI_LjnIeeM-123" source="8uIGnQ0dggvI_LjnIeeM-84" target="8uIGnQ0dggvI_LjnIeeM-77">
          <mxGeometry relative="1" as="geometry" />
        </mxCell>
        <mxCell id="8uIGnQ0dggvI_LjnIeeM-84" value="&lt;font face=&quot;Times New Roman&quot;&gt;&lt;b&gt;Feedback&lt;/b&gt;&lt;/font&gt;" style="ellipse;whiteSpace=wrap;html=1;fillColor=#b1ddf0;strokeColor=#10739e;" vertex="1" parent="8uIGnQ0dggvI_LjnIeeM-123">
          <mxGeometry x="140" y="250" width="130" height="40" as="geometry" />
        </mxCell>
        <mxCell id="8uIGnQ0dggvI_LjnIeeM-102" style="edgeStyle=orthogonalEdgeStyle;curved=1;rounded=0;orthogonalLoop=1;jettySize=auto;html=1;exitX=0;exitY=0;exitDx=0;exitDy=0;entryX=1;entryY=0.75;entryDx=0;entryDy=0;endArrow=none;endFill=0;" edge="1" parent="8uIGnQ0dggvI_LjnIeeM-123" source="8uIGnQ0dggvI_LjnIeeM-85" target="8uIGnQ0dggvI_LjnIeeM-77">
          <mxGeometry relative="1" as="geometry" />
        </mxCell>
        <mxCell id="8uIGnQ0dggvI_LjnIeeM-85" value="&lt;font face=&quot;Times New Roman&quot;&gt;&lt;b&gt;Rating&lt;/b&gt;&lt;/font&gt;" style="ellipse;whiteSpace=wrap;html=1;fillColor=#b1ddf0;strokeColor=#10739e;" vertex="1" parent="8uIGnQ0dggvI_LjnIeeM-123">
          <mxGeometry x="420" y="200" width="130" height="40" as="geometry" />
        </mxCell>
        <mxCell id="8uIGnQ0dggvI_LjnIeeM-88" style="edgeStyle=orthogonalEdgeStyle;curved=1;rounded=0;orthogonalLoop=1;jettySize=auto;html=1;exitX=0.5;exitY=0;exitDx=0;exitDy=0;entryX=0.75;entryY=1;entryDx=0;entryDy=0;endArrow=none;endFill=0;" edge="1" parent="8uIGnQ0dggvI_LjnIeeM-123" source="8uIGnQ0dggvI_LjnIeeM-86" target="8uIGnQ0dggvI_LjnIeeM-77">
          <mxGeometry relative="1" as="geometry">
            <Array as="points">
              <mxPoint x="445" y="240" />
              <mxPoint x="390" y="240" />
            </Array>
          </mxGeometry>
        </mxCell>
        <mxCell id="8uIGnQ0dggvI_LjnIeeM-86" value="&lt;font face=&quot;Times New Roman&quot;&gt;&lt;b&gt;Distance&lt;/b&gt;&lt;/font&gt;" style="ellipse;whiteSpace=wrap;html=1;fillColor=#b1ddf0;strokeColor=#10739e;" vertex="1" parent="8uIGnQ0dggvI_LjnIeeM-123">
          <mxGeometry x="380" y="260" width="130" height="40" as="geometry" />
        </mxCell>
        <mxCell id="8uIGnQ0dggvI_LjnIeeM-98" style="edgeStyle=orthogonalEdgeStyle;curved=1;rounded=0;orthogonalLoop=1;jettySize=auto;html=1;exitX=1;exitY=0.5;exitDx=0;exitDy=0;endArrow=none;endFill=0;" edge="1" parent="8uIGnQ0dggvI_LjnIeeM-123" source="8uIGnQ0dggvI_LjnIeeM-95" target="8uIGnQ0dggvI_LjnIeeM-77">
          <mxGeometry relative="1" as="geometry">
            <Array as="points">
              <mxPoint x="220" y="320" />
              <mxPoint x="346" y="320" />
            </Array>
          </mxGeometry>
        </mxCell>
        <mxCell id="8uIGnQ0dggvI_LjnIeeM-95" value="&lt;font face=&quot;Times New Roman&quot;&gt;&lt;b&gt;Start_Time&lt;/b&gt;&lt;/font&gt;" style="ellipse;whiteSpace=wrap;html=1;fillColor=#b1ddf0;strokeColor=#10739e;" vertex="1" parent="8uIGnQ0dggvI_LjnIeeM-123">
          <mxGeometry x="90" y="320" width="130" height="40" as="geometry" />
        </mxCell>
        <mxCell id="8uIGnQ0dggvI_LjnIeeM-97" style="edgeStyle=orthogonalEdgeStyle;curved=1;rounded=0;orthogonalLoop=1;jettySize=auto;html=1;exitX=0;exitY=0.5;exitDx=0;exitDy=0;endArrow=none;endFill=0;" edge="1" parent="8uIGnQ0dggvI_LjnIeeM-123" source="8uIGnQ0dggvI_LjnIeeM-96">
          <mxGeometry relative="1" as="geometry">
            <mxPoint x="370" y="190" as="targetPoint" />
          </mxGeometry>
        </mxCell>
        <mxCell id="8uIGnQ0dggvI_LjnIeeM-96" value="&lt;font face=&quot;Times New Roman&quot;&gt;&lt;b&gt;End_Time&lt;/b&gt;&lt;/font&gt;" style="ellipse;whiteSpace=wrap;html=1;fillColor=#b1ddf0;strokeColor=#10739e;" vertex="1" parent="8uIGnQ0dggvI_LjnIeeM-123">
          <mxGeometry x="390" y="320" width="130" height="40" as="geometry" />
        </mxCell>
        <mxCell id="8uIGnQ0dggvI_LjnIeeM-100" style="edgeStyle=orthogonalEdgeStyle;curved=1;rounded=0;orthogonalLoop=1;jettySize=auto;html=1;exitX=1;exitY=0.5;exitDx=0;exitDy=0;endArrow=none;endFill=0;entryX=0.117;entryY=0.985;entryDx=0;entryDy=0;entryPerimeter=0;" edge="1" parent="8uIGnQ0dggvI_LjnIeeM-123" source="8uIGnQ0dggvI_LjnIeeM-99" target="8uIGnQ0dggvI_LjnIeeM-77">
          <mxGeometry relative="1" as="geometry" />
        </mxCell>
        <mxCell id="8uIGnQ0dggvI_LjnIeeM-99" value="&lt;font face=&quot;Times New Roman&quot;&gt;&lt;b&gt;Ride_Status&lt;/b&gt;&lt;/font&gt;" style="ellipse;whiteSpace=wrap;html=1;fillColor=#b1ddf0;strokeColor=#10739e;" vertex="1" parent="8uIGnQ0dggvI_LjnIeeM-123">
          <mxGeometry y="220" width="130" height="40" as="geometry" />
        </mxCell>
        <mxCell id="8uIGnQ0dggvI_LjnIeeM-124" value="" style="group" vertex="1" connectable="0" parent="1">
          <mxGeometry x="540" y="10" width="459" height="280" as="geometry" />
        </mxCell>
        <mxCell id="8uIGnQ0dggvI_LjnIeeM-49" value="&lt;b&gt;&lt;font face=&quot;Times New Roman&quot; style=&quot;font-size: 24px;&quot;&gt;Rider&lt;/font&gt;&lt;/b&gt;" style="rounded=1;whiteSpace=wrap;html=1;fillColor=#9e6ad2;arcSize=16;" vertex="1" parent="8uIGnQ0dggvI_LjnIeeM-124">
          <mxGeometry x="120" y="110" width="120" height="60" as="geometry" />
        </mxCell>
        <mxCell id="8uIGnQ0dggvI_LjnIeeM-59" style="edgeStyle=orthogonalEdgeStyle;curved=1;rounded=0;orthogonalLoop=1;jettySize=auto;html=1;exitX=0;exitY=0.5;exitDx=0;exitDy=0;entryX=0.945;entryY=0.028;entryDx=0;entryDy=0;endArrow=none;endFill=0;entryPerimeter=0;" edge="1" parent="8uIGnQ0dggvI_LjnIeeM-124" source="8uIGnQ0dggvI_LjnIeeM-50" target="8uIGnQ0dggvI_LjnIeeM-49">
          <mxGeometry relative="1" as="geometry" />
        </mxCell>
        <mxCell id="8uIGnQ0dggvI_LjnIeeM-50" value="&lt;b&gt;&lt;font face=&quot;Times New Roman&quot;&gt;Email&lt;/font&gt;&lt;/b&gt;" style="ellipse;whiteSpace=wrap;html=1;fillColor=#b1ddf0;strokeColor=#10739e;" vertex="1" parent="8uIGnQ0dggvI_LjnIeeM-124">
          <mxGeometry x="310" y="60" width="130" height="40" as="geometry" />
        </mxCell>
        <mxCell id="8uIGnQ0dggvI_LjnIeeM-58" style="edgeStyle=orthogonalEdgeStyle;curved=1;rounded=0;orthogonalLoop=1;jettySize=auto;html=1;exitX=0;exitY=1;exitDx=0;exitDy=0;entryX=0.75;entryY=0;entryDx=0;entryDy=0;endArrow=none;endFill=0;" edge="1" parent="8uIGnQ0dggvI_LjnIeeM-124" source="8uIGnQ0dggvI_LjnIeeM-51" target="8uIGnQ0dggvI_LjnIeeM-49">
          <mxGeometry relative="1" as="geometry" />
        </mxCell>
        <mxCell id="8uIGnQ0dggvI_LjnIeeM-51" value="&lt;b style=&quot;border-color: var(--border-color);&quot;&gt;&lt;font face=&quot;Times New Roman&quot;&gt;First_Name&lt;/font&gt;&lt;/b&gt;" style="ellipse;whiteSpace=wrap;html=1;fillColor=#b1ddf0;strokeColor=#10739e;" vertex="1" parent="8uIGnQ0dggvI_LjnIeeM-124">
          <mxGeometry x="230" y="10" width="130" height="40" as="geometry" />
        </mxCell>
        <mxCell id="8uIGnQ0dggvI_LjnIeeM-57" style="edgeStyle=orthogonalEdgeStyle;curved=1;rounded=0;orthogonalLoop=1;jettySize=auto;html=1;exitX=0.5;exitY=1;exitDx=0;exitDy=0;entryX=0.5;entryY=0;entryDx=0;entryDy=0;endArrow=none;endFill=0;" edge="1" parent="8uIGnQ0dggvI_LjnIeeM-124" source="8uIGnQ0dggvI_LjnIeeM-52" target="8uIGnQ0dggvI_LjnIeeM-49">
          <mxGeometry relative="1" as="geometry" />
        </mxCell>
        <mxCell id="8uIGnQ0dggvI_LjnIeeM-52" value="&lt;b style=&quot;border-color: var(--border-color);&quot;&gt;&lt;font face=&quot;Times New Roman&quot;&gt;Last_Name&lt;/font&gt;&lt;/b&gt;" style="ellipse;whiteSpace=wrap;html=1;fillColor=#b1ddf0;strokeColor=#10739e;" vertex="1" parent="8uIGnQ0dggvI_LjnIeeM-124">
          <mxGeometry x="90" width="130" height="40" as="geometry" />
        </mxCell>
        <mxCell id="8uIGnQ0dggvI_LjnIeeM-60" style="edgeStyle=orthogonalEdgeStyle;curved=1;rounded=0;orthogonalLoop=1;jettySize=auto;html=1;exitX=0;exitY=0.5;exitDx=0;exitDy=0;entryX=1;entryY=0.25;entryDx=0;entryDy=0;endArrow=none;endFill=0;" edge="1" parent="8uIGnQ0dggvI_LjnIeeM-124" source="8uIGnQ0dggvI_LjnIeeM-53" target="8uIGnQ0dggvI_LjnIeeM-49">
          <mxGeometry relative="1" as="geometry" />
        </mxCell>
        <mxCell id="8uIGnQ0dggvI_LjnIeeM-53" value="&lt;font face=&quot;Times New Roman&quot;&gt;&lt;b&gt;License_Number&lt;/b&gt;&lt;/font&gt;" style="ellipse;whiteSpace=wrap;html=1;fillColor=#b1ddf0;strokeColor=#10739e;" vertex="1" parent="8uIGnQ0dggvI_LjnIeeM-124">
          <mxGeometry x="329" y="120" width="130" height="40" as="geometry" />
        </mxCell>
        <mxCell id="8uIGnQ0dggvI_LjnIeeM-56" style="edgeStyle=orthogonalEdgeStyle;curved=1;rounded=0;orthogonalLoop=1;jettySize=auto;html=1;exitX=1;exitY=0.5;exitDx=0;exitDy=0;entryX=0.25;entryY=0;entryDx=0;entryDy=0;endArrow=none;endFill=0;" edge="1" parent="8uIGnQ0dggvI_LjnIeeM-124" source="8uIGnQ0dggvI_LjnIeeM-54" target="8uIGnQ0dggvI_LjnIeeM-49">
          <mxGeometry relative="1" as="geometry" />
        </mxCell>
        <mxCell id="8uIGnQ0dggvI_LjnIeeM-54" value="&lt;font face=&quot;Times New Roman&quot;&gt;&lt;b&gt;&lt;u&gt;Driver_Id&lt;/u&gt;&lt;/b&gt;&lt;/font&gt;" style="ellipse;whiteSpace=wrap;html=1;fillColor=#b1ddf0;strokeColor=#10739e;" vertex="1" parent="8uIGnQ0dggvI_LjnIeeM-124">
          <mxGeometry y="50" width="130" height="40" as="geometry" />
        </mxCell>
        <mxCell id="8uIGnQ0dggvI_LjnIeeM-61" style="edgeStyle=orthogonalEdgeStyle;curved=1;rounded=0;orthogonalLoop=1;jettySize=auto;html=1;exitX=0;exitY=0;exitDx=0;exitDy=0;entryX=1;entryY=0.5;entryDx=0;entryDy=0;endArrow=none;endFill=0;" edge="1" parent="8uIGnQ0dggvI_LjnIeeM-124" source="8uIGnQ0dggvI_LjnIeeM-55" target="8uIGnQ0dggvI_LjnIeeM-49">
          <mxGeometry relative="1" as="geometry" />
        </mxCell>
        <mxCell id="8uIGnQ0dggvI_LjnIeeM-55" value="&lt;b style=&quot;border-color: var(--border-color);&quot;&gt;&lt;font style=&quot;border-color: var(--border-color);&quot; face=&quot;Times New Roman&quot;&gt;Phone_Number&lt;/font&gt;&lt;/b&gt;" style="ellipse;whiteSpace=wrap;html=1;fillColor=#b1ddf0;strokeColor=#10739e;" vertex="1" parent="8uIGnQ0dggvI_LjnIeeM-124">
          <mxGeometry x="310" y="180" width="130" height="40" as="geometry" />
        </mxCell>
        <mxCell id="8uIGnQ0dggvI_LjnIeeM-65" value="&lt;b style=&quot;border-color: var(--border-color);&quot;&gt;&lt;font style=&quot;border-color: var(--border-color);&quot; face=&quot;Times New Roman&quot;&gt;Password&lt;/font&gt;&lt;/b&gt;" style="ellipse;whiteSpace=wrap;html=1;fillColor=#b1ddf0;strokeColor=#10739e;" vertex="1" parent="8uIGnQ0dggvI_LjnIeeM-124">
          <mxGeometry x="280" y="240" width="130" height="40" as="geometry" />
        </mxCell>
        <mxCell id="8uIGnQ0dggvI_LjnIeeM-132" value="" style="group" vertex="1" connectable="0" parent="1">
          <mxGeometry x="-530" y="200" width="430" height="150" as="geometry" />
        </mxCell>
        <mxCell id="8uIGnQ0dggvI_LjnIeeM-125" value="&lt;b&gt;&lt;font face=&quot;Times New Roman&quot; style=&quot;font-size: 24px;&quot;&gt;Wallet&lt;/font&gt;&lt;/b&gt;" style="rounded=1;whiteSpace=wrap;html=1;fillColor=#9e6ad2;arcSize=16;" vertex="1" parent="8uIGnQ0dggvI_LjnIeeM-132">
          <mxGeometry x="170" y="90" width="120" height="60" as="geometry" />
        </mxCell>
        <mxCell id="8uIGnQ0dggvI_LjnIeeM-130" style="edgeStyle=orthogonalEdgeStyle;curved=1;rounded=0;orthogonalLoop=1;jettySize=auto;html=1;exitX=0.5;exitY=1;exitDx=0;exitDy=0;entryX=0.383;entryY=0;entryDx=0;entryDy=0;entryPerimeter=0;endArrow=none;endFill=0;" edge="1" parent="8uIGnQ0dggvI_LjnIeeM-132" source="8uIGnQ0dggvI_LjnIeeM-126" target="8uIGnQ0dggvI_LjnIeeM-125">
          <mxGeometry relative="1" as="geometry" />
        </mxCell>
        <mxCell id="8uIGnQ0dggvI_LjnIeeM-126" value="&lt;font face=&quot;Times New Roman&quot;&gt;&lt;b&gt;&lt;u&gt;Wallet_Id&lt;/u&gt;&lt;/b&gt;&lt;/font&gt;" style="ellipse;whiteSpace=wrap;html=1;fillColor=#b1ddf0;strokeColor=#10739e;" vertex="1" parent="8uIGnQ0dggvI_LjnIeeM-132">
          <mxGeometry x="130" width="130" height="40" as="geometry" />
        </mxCell>
        <mxCell id="8uIGnQ0dggvI_LjnIeeM-131" style="edgeStyle=orthogonalEdgeStyle;curved=1;rounded=0;orthogonalLoop=1;jettySize=auto;html=1;exitX=0;exitY=0.5;exitDx=0;exitDy=0;entryX=0.75;entryY=0;entryDx=0;entryDy=0;endArrow=none;endFill=0;" edge="1" parent="8uIGnQ0dggvI_LjnIeeM-132" source="8uIGnQ0dggvI_LjnIeeM-127" target="8uIGnQ0dggvI_LjnIeeM-125">
          <mxGeometry relative="1" as="geometry" />
        </mxCell>
        <mxCell id="8uIGnQ0dggvI_LjnIeeM-127" value="&lt;font face=&quot;Times New Roman&quot;&gt;&lt;b&gt;User_Balance&lt;/b&gt;&lt;/font&gt;" style="ellipse;whiteSpace=wrap;html=1;fillColor=#b1ddf0;strokeColor=#10739e;" vertex="1" parent="8uIGnQ0dggvI_LjnIeeM-132">
          <mxGeometry x="300" y="20" width="130" height="40" as="geometry" />
        </mxCell>
        <mxCell id="8uIGnQ0dggvI_LjnIeeM-129" style="edgeStyle=orthogonalEdgeStyle;curved=1;rounded=0;orthogonalLoop=1;jettySize=auto;html=1;exitX=1;exitY=1;exitDx=0;exitDy=0;entryX=0;entryY=0.5;entryDx=0;entryDy=0;endArrow=none;endFill=0;" edge="1" parent="8uIGnQ0dggvI_LjnIeeM-132" source="8uIGnQ0dggvI_LjnIeeM-128" target="8uIGnQ0dggvI_LjnIeeM-125">
          <mxGeometry relative="1" as="geometry" />
        </mxCell>
        <mxCell id="8uIGnQ0dggvI_LjnIeeM-128" value="&lt;font face=&quot;Times New Roman&quot;&gt;&lt;b&gt;User_Id&lt;/b&gt;&lt;/font&gt;" style="ellipse;whiteSpace=wrap;html=1;fillColor=#b1ddf0;strokeColor=#10739e;" vertex="1" parent="8uIGnQ0dggvI_LjnIeeM-132">
          <mxGeometry y="50" width="130" height="40" as="geometry" />
        </mxCell>
        <mxCell id="8uIGnQ0dggvI_LjnIeeM-133" value="&lt;b&gt;&lt;font face=&quot;Times New Roman&quot; style=&quot;font-size: 24px;&quot;&gt;Vehicle&lt;/font&gt;&lt;/b&gt;" style="rounded=1;whiteSpace=wrap;html=1;fillColor=#9e6ad2;arcSize=16;" vertex="1" parent="1">
          <mxGeometry x="305" y="290" width="120" height="60" as="geometry" />
        </mxCell>
      </root>
    </mxGraphModel>
  </diagram>
</mxfile>
